<?xml version="1.0" encoding="UTF-8" standalone="no"?>
<svg
   xmlns:dc="http://purl.org/dc/elements/1.1/"
   xmlns:cc="http://creativecommons.org/ns#"
   xmlns:rdf="http://www.w3.org/1999/02/22-rdf-syntax-ns#"
   xmlns:svg="http://www.w3.org/2000/svg"
   xmlns="http://www.w3.org/2000/svg"
   xmlns:sodipodi="http://sodipodi.sourceforge.net/DTD/sodipodi-0.dtd"
   xmlns:inkscape="http://www.inkscape.org/namespaces/inkscape"
   viewBox="0 0 16 16"
   version="1.1"
   id="svg869"
   sodipodi:docname="Extension.svg"
   inkscape:version="1.0.2 (e86c8708, 2021-01-15)">
  <metadata
     id="metadata875">
    <rdf:RDF>
      <cc:Work
         rdf:about="">
        <dc:format>image/svg+xml</dc:format>
        <dc:type
           rdf:resource="http://purl.org/dc/dcmitype/StillImage" />
        <dc:title></dc:title>
      </cc:Work>
    </rdf:RDF>
  </metadata>
  <defs
     id="defs873" />
  <sodipodi:namedview
     pagecolor="#ffffff"
     bordercolor="#666666"
     borderopacity="1"
     objecttolerance="10"
     gridtolerance="10"
     guidetolerance="10"
     inkscape:pageopacity="0"
     inkscape:pageshadow="2"
     inkscape:window-width="1920"
     inkscape:window-height="1035"
     id="namedview871"
     showgrid="false"
     inkscape:zoom="37.86157"
     inkscape:cx="3.1251556"
     inkscape:cy="9.0259465"
     inkscape:window-x="1920"
     inkscape:window-y="23"
     inkscape:window-maximized="0"
     inkscape:current-layer="svg869"
     inkscape:document-rotation="0" />
  <path
     fill="#888"
     d="M0 2v12h12.69V3.81H5.08L3.95 2H0z"
     id="path853" />
  <g
     id="g865" />
  <g
     id="g77"
     transform="matrix(1.0974081,0,0,1.2953176,-0.7059874,-1.6040349)">
    <path
       style="fill:#204a87;stroke-width:0.0198716;paint-order:stroke fill markers"
       d="m 2.5128573,8.3018226 c -0.00798,-0.0067 -0.014513,-0.429351 -0.014513,-0.939216 0,-0.905882 9.368e-4,-0.926774 0.041632,-0.915928 0.022896,0.0061 0.064363,0.01454 0.092147,0.01875 0.046342,0.007 0.04735,0.0056 0.012198,-0.01667 -0.038294,-0.02429 -0.030539,-0.09333 0.00822,-0.07321 0.010759,0.0056 0.025512,-0.0028 0.032783,-0.01878 0.010225,-0.02238 0.020014,-0.0242 0.04321,-0.008 0.0288,0.02008 0.041285,0.0037 0.032558,-0.04274 -0.00143,-0.0075 0.016947,-0.01366 0.040796,-0.01366 0.023851,0 0.043363,0.0082 0.043363,0.01822 0,0.01002 0.01171,0.01822 0.026019,0.01822 0.020236,0 0.020236,-0.0048 0,-0.02185 -0.03927,-0.03298 -0.032783,-0.04405 0.049868,-0.08501 l 0.075886,-0.03761 v 0.03884 c 0,0.02137 0.00719,0.03281 0.015986,0.02542 0.00879,-0.0074 0.01611,-0.0269 0.01626,-0.04337 3.758e-4,-0.04155 0.1600719,-0.113773 0.2277849,-0.103032 0.045881,0.0073 0.047595,0.0062 0.010992,-0.0072 -0.042192,-0.01537 -0.042051,-0.01615 0.00523,-0.02877 0.026725,-0.0071 0.059942,-0.0071 0.073816,1.2e-4 0.014757,0.0077 0.019413,0.0052 0.011221,-0.0059 -0.013844,-0.01881 0.064107,-0.07212 0.1195808,-0.08177 0.01576,-0.0028 0.034512,-0.01168 0.041667,-0.01986 0.01269,-0.0145 0.064212,-0.02646 0.126113,-0.02927 0.016895,-7.52e-4 0.024358,-0.0067 0.016591,-0.01326 -0.022412,-0.01882 0.091164,-0.06063 0.1303762,-0.048 0.023674,0.0076 0.030213,0.0044 0.019732,-0.0099 -0.00927,-0.0126 -0.00188,-0.02224 0.018124,-0.02358 0.033076,-0.0022 0.060801,-0.0069 0.093427,-0.01582 0.00894,-0.0024 0.024674,-0.0032 0.034959,-0.0016 0.010285,0.0016 0.029987,-0.01013 0.043782,-0.02598 0.013799,-0.01585 0.046849,-0.03019 0.07345,-0.03188 0.026602,-0.0017 0.048365,-0.0095 0.048365,-0.0174 0,-0.0079 0.010334,-0.01434 0.02296,-0.01434 0.01263,0 0.016782,0.01025 0.00923,0.02276 -0.00755,0.01252 0.00218,0.0064 0.021611,-0.01366 0.019436,-0.02004 0.04943,-0.03402 0.066653,-0.03107 0.017222,0.0029 0.031464,-0.0053 0.031648,-0.01821 2.544e-4,-0.01802 0.00481,-0.01762 0.019386,0.0017 0.01555,0.02063 0.028262,0.01807 0.069153,-0.01394 0.027556,-0.02156 0.060297,-0.03605 0.072762,-0.0322 0.012464,0.0038 0.039488,-0.0053 0.060052,-0.02034 0.031392,-0.02296 0.048021,-0.02365 0.1036838,-0.0043 0.036462,0.01269 0.072485,0.01786 0.080053,0.01151 0.00757,-0.0064 -0.00445,-0.01156 -0.026714,-0.01156 -0.028732,0 -0.033745,-0.0057 -0.01729,-0.01947 0.012751,-0.01071 0.036657,-0.02175 0.05312,-0.02452 0.016463,-0.0028 0.059206,-0.01544 0.094981,-0.02814 0.035774,-0.0127 0.089437,-0.02435 0.1192494,-0.02588 0.029815,-0.0015 0.066488,-0.0093 0.081501,-0.01731 0.06174,-0.03284 0.1292748,0.01604 0.1160015,0.08396 -0.00151,0.0078 0.012371,0.01905 0.030878,0.02501 0.029126,0.0094 0.1273899,0.144776 0.1235765,0.170266 -7.528e-4,0.005 0.00876,0.01935 0.02113,0.03187 0.015722,0.01591 0.015167,0.02277 -0.00184,0.02277 -0.013385,0 -0.02434,0.0091 -0.02434,0.02016 0,0.01109 0.014137,0.01561 0.031412,0.01004 0.034211,-0.01103 0.067467,0.04783 0.044593,0.07892 -0.00744,0.01011 0.00169,0.01838 0.020281,0.01838 0.032591,0 0.042916,0.02002 0.035354,0.06854 -0.00199,0.01266 0.011507,0.02787 0.029953,0.03382 0.018447,0.0059 0.033538,0.02658 0.033538,0.04586 0,0.01928 0.014926,0.03986 0.03317,0.04574 0.021837,0.007 0.02845,0.02318 0.01936,0.04724 -0.00917,0.02427 -0.00575,0.03237 0.010195,0.02409 0.021307,-0.01106 0.033494,0.01093 0.026786,0.04834 -0.00128,0.0072 0.017338,0.02196 0.041403,0.03279 0.024065,0.01082 0.037735,0.02785 0.030378,0.03785 -0.00884,0.01202 -0.022524,0.01181 -0.040357,-6.12e-4 -0.019552,-0.01363 -0.026977,-0.011 -0.026977,0.0096 0,0.01866 0.013765,0.02534 0.040252,0.01952 0.030025,-0.0066 0.049476,0.0081 0.07655,0.05786 0.019965,0.03669 0.040517,0.07399 0.045674,0.0829 0.00516,0.0089 -7.528e-4,0.01095 -0.013096,0.0045 -0.013803,-0.0072 -0.01812,0.0023 -0.011191,0.02458 0.00621,0.01994 0.020581,0.03142 0.031941,0.02552 0.011364,-0.0059 0.033756,0.0043 0.049766,0.02271 0.030171,0.03466 0.011051,0.09118 -0.040658,0.120185 -0.016767,0.0094 -0.016121,0.01346 0.00218,0.01366 0.014313,1.52e-4 0.034421,-0.01232 0.044683,-0.02773 0.016139,-0.02422 0.024219,-0.02285 0.05984,0.01022 0.024125,0.02239 0.032558,0.04342 0.020363,0.05077 -0.029153,0.01757 -0.036112,0.05808 -0.00998,0.05808 0.011923,0 0.021979,-0.01024 0.02234,-0.02277 3.634e-4,-0.01252 0.010714,-0.0083 0.023005,0.0095 0.012288,0.01773 0.015745,0.04971 0.00768,0.07105 -0.011048,0.02923 -0.00698,0.03633 0.016493,0.02877 0.041296,-0.01331 0.087388,0.05095 0.072642,0.101288 -0.00642,0.02191 -0.00607,0.0296 7.918e-4,0.01707 0.00685,-0.01252 0.021389,-0.02277 0.032321,-0.02277 0.025046,0 0.016223,0.04109 -0.012649,0.05891 -0.011984,0.0074 -0.00308,0.01351 0.019875,0.01366 0.022855,1.52e-4 0.035203,0.0056 0.02744,0.01214 -0.00776,0.0065 0.00282,0.02358 0.02349,0.03791 0.0355,0.02459 0.035417,0.02548 -0.00147,0.01567 -0.02284,-0.0061 -0.033568,-0.0029 -0.025824,0.0076 0.00729,0.0099 0.00293,0.01801 -0.00971,0.01801 -0.01263,0 -0.02296,0.0068 -0.02296,0.01517 0,0.0083 0.014637,0.01517 0.032524,0.01517 0.017887,0 0.032524,-0.0068 0.032524,-0.01517 0,-0.0083 0.00945,-0.01517 0.021002,-0.01517 0.011552,0 0.014772,0.01364 0.00716,0.0303 -0.00984,0.02155 -0.00584,0.02615 0.01384,0.01594 0.02122,-0.01102 0.024625,-1.5e-5 0.01458,0.04709 -0.00863,0.04049 -0.00694,0.04932 0.00495,0.02585 0.017399,-0.03432 0.018868,-0.03439 0.040474,-0.002 0.012329,0.01851 0.017677,0.04888 0.011886,0.06749 -0.00579,0.01861 -2.905e-4,0.03384 0.012198,0.03384 0.025305,0 0.1060681,0.08867 0.1165351,0.127938 0.00368,0.01387 -0.0071,0.02559 -0.023997,0.02604 -0.016895,4.71e-4 -0.034711,0.01312 -0.039594,0.02815 -0.0075,0.02308 -0.00555,0.02331 0.012563,0.0015 0.017188,-0.0207 0.029938,-0.01408 0.064293,0.03337 0.023569,0.03255 0.046407,0.05024 0.050749,0.0393 0.00434,-0.01094 0.020142,-0.0034 0.035109,0.01671 0.021994,0.02959 0.021833,0.03661 -8.643e-4,0.03661 -0.015433,0 -0.02806,0.01639 -0.02806,0.03643 0,0.02004 0.00767,0.03643 0.017034,0.03643 0.00937,0 0.017034,-0.0087 0.017034,-0.01929 0,-0.01061 0.011341,-0.0134 0.0252,-0.0062 0.017361,0.009 0.010612,0.02301 -0.021682,0.04497 -0.048966,0.03331 -0.062442,0.07158 -0.0252,0.07158 0.011924,0 0.021683,-0.01229 0.021683,-0.02732 0,-0.01502 0.00976,-0.02732 0.021682,-0.02732 0.011924,0 0.021833,0.01024 0.022013,0.02277 2.183e-4,0.01517 0.00734,0.01366 0.021348,-0.0046 0.017925,-0.0233 0.021066,-0.02258 0.021348,0.0048 2.543e-4,0.0243 0.015869,0.03117 0.063877,0.02809 0.034951,-0.0022 0.058766,-0.01056 0.052925,-0.0185 -0.00584,-0.0079 2.909e-4,-0.01443 0.013622,-0.01443 0.013333,0 0.019086,-0.007 0.012788,-0.01556 -0.0063,-0.0086 0.012637,-0.03458 0.042084,-0.05781 0.044494,-0.03511 0.053536,-0.0371 0.053536,-0.01175 0,0.01701 0.016783,0.03037 0.037943,0.03022 0.03116,-2.29e-4 0.032377,-0.0032 0.00681,-0.01682 -0.025057,-0.01332 -0.025872,-0.02187 -0.00418,-0.04382 0.022885,-0.02316 0.019409,-0.02577 -0.023077,-0.01732 -0.049216,0.0098 -0.049324,0.0095 -0.00666,-0.01907 0.02385,-0.01595 0.036244,-0.02927 0.027545,-0.0296 -0.0087,-3.13e-4 0.00353,-0.02721 0.027173,-0.05977 0.023648,-0.03255 0.055918,-0.08208 0.071713,-0.110063 l 0.028721,-0.05087 0.025929,0.04177 c 0.024001,0.03866 0.025298,0.03703 0.017474,-0.02198 -0.011131,-0.08391 0.00169,-0.109274 0.055251,-0.109274 0.034129,0 0.038802,-0.0055 0.020495,-0.024 -0.04753,-0.04811 0.1151436,-0.245617 0.1840121,-0.223418 0.035707,0.01151 0.035782,0.01023 0.00128,-0.02182 -0.034478,-0.032 -0.034335,-0.03809 0.00237,-0.101492 0.021483,-0.0371 0.04521,-0.06228 0.052729,-0.05596 0.00752,0.0063 0.024174,-0.02128 0.037014,-0.06133 0.012836,-0.04005 0.037707,-0.07744 0.055264,-0.0831 0.01954,-0.0063 0.026492,-0.02217 0.017925,-0.04093 -0.00793,-0.01735 -7.137e-4,-0.03937 0.016628,-0.05077 0.016843,-0.01107 0.033617,-0.03652 0.037273,-0.05656 0.00365,-0.02003 0.024005,-0.04894 0.045221,-0.06424 0.021216,-0.0153 0.046455,-0.05218 0.056089,-0.08196 l 0.017515,-0.05414 0.017489,0.04554 c 0.015576,0.04055 0.017245,0.03856 0.015253,-0.01822 -0.00229,-0.06551 0.041072,-0.163912 0.072241,-0.163912 0.00964,0 0.013051,-0.01024 0.00759,-0.02277 -0.012679,-0.02907 0.013483,-0.06365 0.054015,-0.07139 0.057515,-0.01099 0.082734,-0.04119 0.065858,-0.07886 -0.018943,-0.04229 0.00919,-0.118382 0.043773,-0.118382 0.013013,0 0.01785,-0.0079 0.010747,-0.01755 -0.0071,-0.0097 0.00696,-0.03424 0.031243,-0.05464 0.026451,-0.02222 0.033287,-0.0372 0.017053,-0.03737 -0.018068,-1.87e-4 -0.01626,-0.0062 0.00542,-0.01793 0.017887,-0.0097 0.023505,-0.01778 0.012483,-0.01793 -0.011021,-1.52e-4 0.00128,-0.01933 0.0273,-0.04261 0.026038,-0.02328 0.040523,-0.04806 0.032189,-0.05506 -0.00833,-0.007 0.00668,-0.02557 0.033358,-0.04127 0.02927,-0.01722 0.045948,-0.04347 0.042055,-0.06619 -0.00805,-0.04696 0.040402,-0.06417 0.054257,-0.01927 0.00822,0.02663 0.010623,0.02529 0.01266,-0.007 0.00139,-0.02195 -0.00724,-0.04497 -0.019165,-0.05116 -0.07421,-0.03853 0.060424,-0.05836 0.1556933,-0.02294 0.033617,0.0125 0.061124,0.02941 0.061124,0.03757 0,0.0082 0.00956,0.0099 0.021235,0.0038 0.029123,-0.01512 0.1131276,0.02476 0.097344,0.04621 -0.016377,0.02226 0.015663,0.022 0.086761,-7.19e-4 0.044021,-0.01406 0.059096,-0.01208 0.068728,0.009 0.00679,0.01486 0.020871,0.02258 0.031303,0.01717 0.024768,-0.01286 0.1065848,0.02413 0.1065848,0.04819 0,0.01026 -0.00976,0.01358 -0.021683,0.0074 -0.011924,-0.0062 -0.021683,-0.0035 -0.021683,0.0061 0,0.02954 0.065953,0.04044 0.078501,0.01297 0.0065,-0.01422 0.026203,-0.02122 0.043789,-0.01556 0.017587,0.0057 0.026842,0.02154 0.020566,0.03528 -0.00627,0.01373 -0.00195,0.02497 0.00959,0.02497 0.011552,0 0.021002,-0.01204 0.021002,-0.02675 0,-0.01625 0.01272,-0.02265 0.0324,-0.0163 0.01782,0.0057 0.027872,0.0166 0.022337,0.02412 -0.00553,0.0075 0.014035,0.0098 0.043488,0.0051 0.031085,-0.005 0.053548,-6e-5 0.053548,0.01174 0,0.01118 0.02009,0.02034 0.044641,0.02034 0.024556,0 0.039288,0.0073 0.032747,0.01617 -0.00655,0.0089 0.031906,0.02169 0.085447,0.02843 0.05354,0.0067 0.097346,0.02044 0.097346,0.03043 0,0.01 0.00732,0.01437 0.016271,0.0097 0.00895,-0.0046 0.050418,0.0068 0.092147,0.02548 0.04173,0.01866 0.065308,0.03427 0.052386,0.03469 -0.012919,4.07e-4 -0.023491,0.0127 -0.023491,0.02728 0,0.01458 0.00813,0.0223 0.018066,0.01714 0.00994,-0.0052 0.018066,-6.91e-4 0.018066,0.0099 0,0.01061 0.00945,0.01929 0.021005,0.01929 0.011553,0 0.015596,-0.01184 0.00898,-0.0263 -0.00833,-0.01824 0.00201,-0.02542 0.03374,-0.02341 0.031526,0.002 0.041819,0.01159 0.033093,0.03086 -0.00967,0.02137 -0.00665,0.02295 0.012869,0.0067 0.035714,-0.02976 0.1691738,0.02775 0.1655784,0.07136 -0.00145,0.01753 -0.012747,0.03212 -0.025114,0.03242 -0.012367,3.04e-4 -0.00618,0.0085 0.013739,0.01831 0.023843,0.01169 0.056811,0.01118 0.096447,-0.0015 0.047886,-0.01529 0.074885,-0.0126 0.1318078,0.01315 0.070531,0.03191 0.093523,0.06053 0.048622,0.06053 -0.01263,0 -0.017648,0.0072 -0.011163,0.01604 0.016349,0.02222 0.1208496,0.03726 0.1208496,0.01739 0,-0.0089 0.02927,-0.0035 0.06505,0.0121 0.07119,0.03092 0.07835,0.04528 0.03903,0.07831 -0.01446,0.01214 -0.01638,0.02185 -0.0044,0.02185 0.01192,0 0.03234,-0.009 0.04537,-0.0199 0.03048,-0.0256 0.123038,0.01255 0.10149,0.04184 -0.0084,0.01142 -0.005,0.015 0.008,0.0083 0.01253,-0.0065 0.04889,-4.39e-4 0.0808,0.01346 l 0.05803,0.02529 -0.04545,0.03557 -0.04546,0.03557 0.05369,-0.0024 c 0.02953,-0.0013 0.06066,-0.0083 0.06918,-0.01543 0.0085,-0.0072 0.02371,-0.01301 0.03376,-0.01301 0.01005,0 0.01574,0.420025 0.01265,0.933389 l -0.0056,0.933388 -4.0128703,0.0046 c -2.2070783,0.0026 -4.0193994,-8.91e-4 -4.027381,-0.0076 z m 3.9687528,-0.39503 c -0.011521,-0.02903 -0.051645,-0.03385 -0.051645,-0.0062 0,0.01363 0.01328,0.02479 0.02951,0.02479 0.01623,0 0.026192,-0.0084 0.022135,-0.01859 z m 0.1362636,-0.01177 c 0,-0.01002 -0.0043,-0.01822 -0.00956,-0.01822 -0.00526,0 -0.015591,0.0082 -0.02296,0.01822 -0.00737,0.01002 -0.00308,0.01822 0.00956,0.01822 0.01263,0 0.02296,-0.0082 0.02296,-0.01822 z m -0.440505,-0.476937 c -0.00692,-0.01453 -0.012059,-0.01022 -0.0131,0.011 -9.367e-4,0.0192 0.00418,0.02995 0.011386,0.0239 0.0072,-0.0061 0.00797,-0.02176 0.00173,-0.03491 z m 0.9106324,-0.182119 c -0.00692,-0.01453 -0.012058,-0.01021 -0.013099,0.011 -9.368e-4,0.0192 0.00418,0.02995 0.011386,0.0239 0.0072,-0.0061 0.00797,-0.02176 0.00173,-0.0349 z m 0.061075,-0.06944 c 0.00737,-0.01002 0.00308,-0.01822 -0.00956,-0.01822 -0.01263,0 -0.02296,0.0082 -0.02296,0.01822 0,0.01002 0.0043,0.01822 0.00956,0.01822 0.00526,0 0.015591,-0.0082 0.02296,-0.01822 z m 0.054204,-0.05464 c 0,-0.01002 -0.00976,-0.01822 -0.021683,-0.01822 -0.011928,0 -0.021683,0.0082 -0.021683,0.01822 0,0.01002 0.00976,0.01822 0.021683,0.01822 0.011923,0 0.021683,-0.0082 0.021683,-0.01822 z M 5.9240585,6.9485536 c 0,-0.0097 -0.014637,-0.01292 -0.032524,-0.0072 -0.017887,0.0058 -0.032524,0.0137 -0.032524,0.01764 0,0.004 0.014637,0.0072 0.032524,0.0072 0.017887,0 0.032524,-0.0079 0.032524,-0.01764 z m 1.4093126,-0.02789 c 0.015956,-0.02505 0.037116,-0.04553 0.047027,-0.04553 0.00991,0 0.017711,-0.01024 0.017335,-0.02277 -3.758e-4,-0.01252 -0.026519,0.0018 -0.058094,0.03187 -0.031573,0.03005 -0.06614,0.05239 -0.076812,0.04963 -0.010672,-0.0028 -0.013224,0.0034 -0.00567,0.01366 0.022066,0.02999 0.045184,0.02184 0.076218,-0.02687 z m 0.060858,-4.7e-4 c -0.00668,-0.0056 -0.0188,0.0045 -0.02694,0.02246 -0.011766,0.02595 -0.00927,0.02805 0.012138,0.01019 0.014817,-0.01236 0.02148,-0.02705 0.014806,-0.03266 z m -1.5542066,-0.03169 c -0.021412,-0.01785 -0.023904,-0.01577 -0.012138,0.01019 0.00814,0.01796 0.020266,0.02807 0.026939,0.02246 0.00668,-0.0056 1.39e-5,-0.02031 -0.014802,-0.03266 z m 1.7042937,-0.170058 c -0.0072,-0.0061 -0.025906,-0.0067 -0.041556,-0.0014 -0.017297,0.0058 -0.01216,0.01013 0.0131,0.011 0.022855,7.8e-4 0.035661,-0.0035 0.028458,-0.0096 z m -1.8292343,-0.05274 c -0.00687,-0.01502 -0.00169,-0.02732 0.011522,-0.02732 0.013201,0 0.024001,-0.0092 0.024001,-0.02045 0,-0.01412 -0.010052,-0.01343 -0.032524,0.0022 -0.036379,0.02536 -0.04389,0.07285 -0.011522,0.07285 0.011552,0 0.015385,-0.01229 0.00852,-0.02732 z m 1.775368,-0.01822 c 0.0057,-0.02505 0.00195,-0.04553 -0.00831,-0.04553 -0.01027,0 -0.018676,0.02049 -0.018676,0.04553 0,0.02504 0.00376,0.04553 0.00831,0.04553 0.00457,0 0.012976,-0.02049 0.018676,-0.04553 z m 0.1805369,-0.209889 c 0,-0.05196 -0.044336,-0.04436 -0.04794,0.0082 -0.00184,0.0271 0.00682,0.041 0.022456,0.03596 0.014017,-0.0045 0.025485,-0.0244 0.025485,-0.04419 z m -2.0724862,0.005 c -1.815e-4,-0.01819 -0.00728,-0.02405 -0.016512,-0.01366 -0.0089,0.01002 -0.025012,0.02436 -0.035804,0.03187 -0.010792,0.0075 -0.00335,0.01366 0.016515,0.01366 0.020086,0 0.035989,-0.01416 0.035804,-0.03187 z m -2.7749293,-0.09562 c 0,-0.01002 -0.0043,-0.01822 -0.00956,-0.01822 -0.00526,0 -0.015591,0.0082 -0.02296,0.01822 -0.00737,0.01002 -0.00308,0.01821 0.00956,0.01821 0.01263,0 0.02296,-0.0082 0.02296,-0.01821 z m 2.6451708,-0.125783 c 0,-0.02655 -0.010958,-0.03231 -0.046569,-0.02449 -0.044553,0.0098 -0.044843,0.01129 -0.0067,0.03472 0.051277,0.0315 0.053266,0.03111 0.053266,-0.01023 z m 2.3199455,0.0074 c 0,-0.01502 -0.00383,-0.02732 -0.00852,-0.02732 -0.00468,0 -0.014137,0.01229 -0.021002,0.02732 -0.00687,0.01502 -0.00304,0.02732 0.00852,0.02732 0.011552,0 0.021002,-0.01229 0.021002,-0.02732 z m -4.6950204,-0.0078 c 0.00686,-0.0093 0.00256,-0.0221 -0.00956,-0.02839 -0.012119,-0.0063 -0.022036,0.0013 -0.022036,0.01695 0,0.03199 0.013009,0.0367 0.031596,0.01144 z m 0.5616506,-0.247131 c -0.00687,-0.01503 -0.022389,-0.02732 -0.034497,-0.02732 -0.01269,0 -0.010582,0.01157 0.00497,0.02732 0.014843,0.01503 0.030371,0.02732 0.034497,0.02732 0.00413,0 0.00188,-0.01229 -0.00497,-0.02732 z M 4.05943,5.8635136 c 0,-0.02152 -0.040995,-0.02148 -0.050828,4.6e-5 -0.00801,0.01753 -0.00154,0.02292 0.019409,0.01616 0.017278,-0.0056 0.031419,-0.01286 0.031419,-0.01621 z m 5.073525,0.01 c -0.042422,-0.02303 -0.086728,-0.02303 -0.086728,0 0,0.01002 0.026831,0.01809 0.059625,0.01793 0.046464,-2.16e-4 0.052447,-0.0042 0.027099,-0.01793 z m -0.1142809,-0.04743 c -0.0072,-0.0061 -0.025906,-0.0067 -0.041557,-0.0014 -0.017297,0.0058 -0.012161,0.01013 0.0131,0.011 0.022855,7.85e-4 0.035661,-0.0035 0.028457,-0.0096 z m -4.7532677,-0.08006 c -0.00737,-0.01002 -0.023156,-0.01821 -0.035083,-0.01821 -0.011924,0 -0.015651,0.0082 -0.00828,0.01821 0.00737,0.01002 0.023156,0.01821 0.035083,0.01821 0.011924,0 0.015651,-0.0082 0.00828,-0.01821 z m 0.9431553,-0.0091 c 0,-0.01503 -0.00383,-0.02732 -0.00852,-0.02732 -0.00468,0 -0.014137,0.01229 -0.021002,0.02732 -0.00687,0.01503 -0.00304,0.02732 0.00852,0.02732 0.011552,0 0.021002,-0.01229 0.021002,-0.02732 z m 2.8403064,-0.0091 c 0,-0.01002 -0.0043,-0.01821 -0.00956,-0.01821 -0.00526,0 -0.015591,0.0082 -0.02296,0.01821 -0.00737,0.01002 -0.00308,0.01821 0.00956,0.01821 0.01263,0 0.02296,-0.0082 0.02296,-0.01821 z m 0.036492,-0.03984 c -0.00692,-0.01453 -0.012059,-0.01021 -0.0131,0.011 -9.368e-4,0.0192 0.00418,0.02995 0.011386,0.0239 0.0072,-0.0061 0.00797,-0.02176 0.00173,-0.03491 z m 0.2868817,-0.08002 c 0.025354,-0.0213 -0.01664,-0.01944 -0.074035,0.0033 l -0.065045,0.02574 0.065001,-0.01069 c 0.035748,-0.0059 0.069086,-0.01412 0.074079,-0.01832 z"
       id="path95" />
    <path
       style="fill:#204a87;stroke-width:0.0198716;paint-order:stroke fill markers"
       d="m 6.3892896,5.4376086 c 0.00686,-0.0093 0.00323,-0.02175 -0.00806,-0.02762 -0.011296,-0.0059 -0.02668,-0.0023 -0.034192,0.0079 -0.00853,0.0116 -0.027391,0.01238 -0.050282,0.0021 -0.020145,-0.0091 -0.046384,-0.01858 -0.058309,-0.02116 -0.011924,-0.0026 -0.038756,-0.0084 -0.059625,-0.01303 -0.020867,-0.0046 -0.037943,-0.01694 -0.037943,-0.02746 0,-0.01052 -0.00659,-0.01358 -0.014652,-0.0068 -0.00806,0.0068 -0.03733,-0.0056 -0.065045,-0.02746 -0.027717,-0.02187 -0.050393,-0.03368 -0.050393,-0.02624 0,0.0074 -0.02927,-0.004 -0.065045,-0.02538 -0.037901,-0.02267 -0.065184,-0.05549 -0.065377,-0.07864 -2.544e-4,-0.02917 -0.00528,-0.03318 -0.018932,-0.01508 -0.014873,0.01971 -0.03001,0.01632 -0.075554,-0.01694 -0.031325,-0.02288 -0.056955,-0.0529 -0.056955,-0.06671 0,-0.01381 -0.00865,-0.02062 -0.019225,-0.01513 -0.010575,0.0055 -0.031941,-0.0029 -0.04748,-0.01862 -0.022223,-0.02249 -0.022709,-0.03605 -0.00225,-0.06354 0.014291,-0.01922 0.016718,-0.03495 0.0054,-0.03495 -0.011322,0 -0.026714,0.0083 -0.034203,0.01851 -0.015621,0.02123 -0.053986,0.0065 -0.053986,-0.02066 0,-0.01002 0.00976,-0.01315 0.021683,-0.007 0.011924,0.0062 0.021683,0.0022 0.021683,-0.0088 0,-0.01105 -0.012198,-0.01875 -0.027101,-0.01713 -0.014907,0.0016 -0.03816,0.002 -0.051675,7.86e-4 -0.030134,-0.0026 -0.054112,-0.07141 -0.029378,-0.08425 0.021337,-0.01108 0.016208,-0.130008 -0.00623,-0.14452 -0.00864,-0.0056 -0.010909,-0.0048 -0.00505,0.0018 0.00586,0.0066 -0.00147,0.02455 -0.01626,0.03992 -0.021469,0.02229 -0.021431,0.02517 1.818e-4,0.01426 0.036263,-0.0183 0.033178,0.0075 -0.00611,0.05114 -0.031509,0.03499 -0.031866,0.03499 -0.035136,0 -0.0018,-0.01945 -0.00557,-0.04355 -0.00834,-0.05357 -0.00278,-0.01002 -0.00616,-0.02846 -0.00754,-0.04098 -0.00139,-0.01252 -0.024456,-0.02341 -0.051285,-0.0242 -0.026831,-7.85e-4 -0.036676,-0.0055 -0.021874,-0.01057 0.020653,-0.007 0.019751,-0.01515 -0.00387,-0.03499 -0.016929,-0.01422 -0.039413,-0.02585 -0.049963,-0.02585 -0.027237,0 -0.1136454,-0.1717462 -0.090105,-0.1790894 0.031509,-0.00983 0.022253,-0.035639 -0.011792,-0.032884 -0.017188,0.00138 -0.030848,-0.00567 -0.030355,-0.015684 4.885e-4,-0.010017 0.00968,-0.016164 0.020412,-0.013659 0.010733,0.00251 0.019514,-0.00432 0.019514,-0.015177 0,-0.010851 -0.012108,-0.016339 -0.02691,-0.012196 -0.03895,0.010904 -0.073655,-0.024796 -0.093897,-0.096593 -0.024832,-0.088076 -0.024959,-0.088499 -0.030829,-0.1036899 -0.00289,-0.00751 -0.00412,-0.019806 -0.0027,-0.027319 0.00143,-0.00751 -0.00611,-0.013659 -0.016703,-0.013659 -0.010601,0 -0.017917,-0.013901 -0.01626,-0.030892 0.00218,-0.022298 -0.015576,-0.031794 -0.063795,-0.034139 -0.088952,-0.00433 -0.1662734,-0.040186 -0.1464577,-0.067924 0.00938,-0.013133 9.757e-4,-0.011879 -0.021074,0.00315 -0.023904,0.016286 -0.036683,0.017875 -0.036683,0.00456 0,-0.011243 -0.019514,-0.020442 -0.043364,-0.020442 -0.028909,0 -0.043363,-0.012142 -0.043363,-0.036425 0,-0.020035 -0.0087,-0.036425 -0.01933,-0.036425 -0.010631,0 -0.025936,-0.022109 -0.034012,-0.049135 -0.01033,-0.034569 -0.019845,-0.042117 -0.032096,-0.025463 -0.013149,0.017869 -0.026068,0.013293 -0.052715,-0.018662 -0.042756,-0.051276 -0.050986,-0.2892022 -0.010003,-0.2892022 0.013911,0 0.019589,-0.0048 0.012611,-0.010654 -0.02048,-0.017201 0.029318,-0.1178509 0.052382,-0.1058771 0.011559,0.006 0.017928,-0.0034 0.014148,-0.020896 -0.00378,-0.017496 0.00533,-0.035394 0.020247,-0.039774 0.01791,-0.00526 0.022735,0.00338 0.014216,0.025429 -0.00988,0.025573 -0.00788,0.027479 0.00852,0.00813 0.012766,-0.015051 0.043694,-0.021683 0.07653,-0.016411 0.03031,0.00487 0.067935,0.00113 0.083613,-0.00833 0.020983,-0.012647 0.018496,-0.014474 -0.00944,-0.00693 -0.020867,0.00564 -0.037943,0.00345 -0.037943,-0.00486 0,-0.00831 -0.025666,-0.010995 -0.057034,-0.00596 -0.042117,0.00676 -0.054432,0.00254 -0.047086,-0.016185 0.00547,-0.013938 0.030427,-0.027883 0.055459,-0.030989 0.073424,-0.00911 0.098951,-0.052001 0.094779,-0.1592503 -0.00214,-0.054895 0.00756,-0.1177784 0.021559,-0.1397414 0.013994,-0.021962 0.023757,-0.083289 0.021694,-0.1362806 -0.00207,-0.052992 0.00382,-0.096361 0.013066,-0.096375 0.00925,-1.47e-5 0.019642,-0.034565 0.023099,-0.076779 0.00346,-0.042214 0.016906,-0.082263 0.029882,-0.088999 0.012976,-0.00674 0.017515,-0.020505 0.01009,-0.030601 -0.00743,-0.010096 0.00101,-0.041744 0.01877,-0.070333 0.017752,-0.028588 0.032336,-0.066322 0.032407,-0.083852 7.29e-5,-0.01753 0.00989,-0.031872 0.021814,-0.031872 0.011924,0 0.021683,-0.012832 0.021683,-0.028516 0,-0.015684 0.011289,-0.046234 0.025087,-0.06789 0.02455,-0.038533 0.02547,-0.038604 0.042947,-0.00336 0.013103,0.026429 0.015576,0.020195 0.00928,-0.023419 -0.00474,-0.032888 0.00361,-0.069665 0.018673,-0.082332 0.01499,-0.012591 0.038895,-0.041164 0.053123,-0.063495 0.014227,-0.022332 0.039855,-0.040602 0.056948,-0.040602 0.018718,0 0.026117,-0.010867 0.018601,-0.027319 -0.00687,-0.015026 -0.00169,-0.027319 0.011522,-0.027319 0.013201,0 0.024001,-0.012293 0.024001,-0.027319 0,-0.039604 0.036368,-0.03354 0.049374,0.00823 0.00609,0.019552 -9.06e-5,0.039395 -0.013731,0.044093 -0.013641,0.0047 -0.0083,0.00919 0.011863,0.00998 0.048618,0.00191 0.074131,-0.035077 0.037364,-0.054163 -0.036635,-0.019019 -0.00331,-0.1100112 0.04522,-0.1234437 0.02806,-0.00777 0.028379,-0.00479 0.00233,0.021718 -0.016606,0.016897 -0.023922,0.035986 -0.01626,0.042422 0.00766,0.00643 0.01393,0.00125 0.01393,-0.011497 0,-0.012776 0.014118,-0.018646 0.031419,-0.01307 0.022119,0.00713 0.027421,0.00138 0.017917,-0.019426 -0.010221,-0.022379 -0.00442,-0.026626 0.023911,-0.017493 0.020732,0.00668 0.031919,0.00459 0.025091,-0.00468 -0.00678,-0.00921 -0.00225,-0.021975 0.010067,-0.028369 0.012314,-0.00639 0.016775,-0.019251 0.00992,-0.028576 -0.00686,-0.00932 0.00169,-0.016954 0.019007,-0.016954 0.017316,0 0.037097,-0.012293 0.043962,-0.027319 0.00687,-0.015026 0.027996,-0.027319 0.046963,-0.027319 0.018965,0 0.029085,-0.00734 0.022487,-0.016305 -0.0066,-0.00897 0.00502,-0.02179 0.025824,-0.028494 0.020799,-0.0067 0.039233,-0.00961 0.040963,-0.00646 0.00173,0.00315 0.021262,-0.00804 0.043403,-0.024874 0.034609,-0.026307 0.1478421,-0.07157 0.1811111,-0.072394 0.00596,-1.41e-4 0.020901,-0.00728 0.033196,-0.015853 0.033016,-0.023016 0.1388283,-0.04191 0.2414986,-0.043119 0.049719,-5.961e-4 0.086941,-0.00576 0.082715,-0.011509 -0.00423,-0.00575 0.098713,-0.010907 0.2287532,-0.011472 0.1300406,-5.626e-4 0.2326396,0.00413 0.2279972,0.010444 -0.00464,0.00631 0.032238,0.011951 0.081959,0.012537 0.1129381,0.00131 0.1831786,0.015819 0.3200163,0.066008 0.062625,0.022968 0.1035576,0.048705 0.097736,0.061448 -0.00644,0.014092 0.00886,0.020189 0.042828,0.017054 0.035451,-0.00327 0.078359,0.015339 0.1303676,0.056542 0.042638,0.033779 0.088149,0.055898 0.1011371,0.049156 0.014979,-0.00778 0.01865,-0.00138 0.010033,0.017464 -0.00747,0.016349 -0.00409,0.03465 0.00751,0.040671 0.011597,0.00602 0.015328,0.020627 0.00829,0.032455 -0.00704,0.011829 5.631e-4,0.0079 0.016865,-0.00872 0.027537,-0.028055 0.03349,-0.027805 0.082915,0.00352 0.029285,0.018555 0.05369,0.040353 0.054231,0.048438 5.261e-4,0.00809 0.042007,0.050544 0.092147,0.094354 0.05014,0.04381 0.091164,0.085582 0.091164,0.092829 0,0.00725 0.020089,0.03263 0.04464,0.056409 0.024554,0.02378 0.0401,0.057815 0.034553,0.075636 -0.0062,0.019915 0.00188,0.032402 0.020946,0.032402 0.017139,0 0.03686,0.024467 0.044044,0.054637 0.00716,0.030052 0.021547,0.054637 0.031979,0.054637 0.010435,0 0.017421,0.00615 0.015531,0.013659 -0.00323,0.012851 0.00405,0.032701 0.040146,0.1092747 0.00826,0.01753 0.016031,0.040067 0.017264,0.050084 0.00124,0.010017 0.014659,0.037167 0.029833,0.060333 0.015174,0.023166 0.025519,0.064145 0.022987,0.091062 -0.00252,0.026918 0.00274,0.063345 0.011732,0.08095 0.00899,0.017605 0.00968,0.061829 0.00154,0.098275 -0.010139,0.045397 -0.00614,0.070763 0.012701,0.080544 0.016515,0.00857 0.032306,0.071178 0.03952,0.1566991 0.011724,0.1389677 0.013464,0.1425609 0.071641,0.1481842 0.032794,0.00317 0.059625,0.013415 0.059625,0.022765 0,0.00935 0.020089,0.017004 0.044643,0.017004 0.024554,0 0.039833,0.00654 0.033952,0.014528 -0.00588,0.00799 -0.00173,0.026432 0.00923,0.040978 0.017249,0.022906 0.019984,0.022787 0.020393,-8.802e-4 2.544e-4,-0.015509 0.018792,-0.00397 0.042851,0.026683 0.031671,0.04036 0.035744,0.057542 0.016117,0.068018 -0.019946,0.010647 -0.019435,0.014083 0.00214,0.014296 0.01561,1.413e-4 0.022836,0.00781 0.016061,0.017023 -0.00678,0.00921 0.0012,0.028112 0.017755,0.042009 0.0239,0.020075 0.024674,0.031472 0.00377,0.055486 -0.014471,0.016622 -0.023851,0.048941 -0.020844,0.071819 0.00819,0.062313 0.011807,0.063993 0.030761,0.014277 0.015294,-0.040112 0.017616,-0.037138 0.019522,0.024997 0.00192,0.062559 -0.00173,0.067805 -0.032396,0.046436 -0.030705,-0.021405 -0.033794,-0.016622 -0.027687,0.042884 0.00754,0.073497 -0.034549,0.1312745 -0.06524,0.089562 -0.013716,-0.018646 -0.022957,-0.017721 -0.044903,0.00449 -0.022843,0.023119 -0.021288,0.030008 0.00896,0.039759 0.029225,0.00942 0.022081,0.01759 -0.0355,0.040599 -0.039649,0.015844 -0.082679,0.040426 -0.095623,0.054628 -0.021051,0.0231 -0.074431,0.027867 -0.2165344,0.019339 -0.024715,-0.00147 -0.073497,0.0198 -0.1084085,0.047294 -0.05965,0.046977 -0.060381,0.049185 -0.012126,0.036641 0.038354,-0.00997 0.048759,-0.0071 0.041114,0.011327 -0.00563,0.013572 -0.027514,0.022035 -0.048637,0.018803 -0.032922,-0.00504 -0.036346,0.00333 -0.023997,0.058615 0.018274,0.081832 -0.056341,0.234111 -0.106752,0.2178617 -0.017778,-0.00573 -0.032325,-8.802e-4 -0.032325,0.010816 0,0.011678 0.00976,0.01617 0.021682,0.00998 0.035696,-0.01853 0.024602,0.028156 -0.021611,0.090968 -0.031171,0.04237 -0.05719,0.05756 -0.092922,0.05427 -0.03612,-0.0033 -0.049628,0.0048 -0.049628,0.02982 0,0.01891 0.0068,0.03439 0.015117,0.03439 0.00832,0 0.011848,0.01434 0.00785,0.03187 -0.00399,0.01753 -0.00801,0.03802 -0.00892,0.04553 -9.033e-4,0.0075 -0.011991,0.01366 -0.024621,0.01366 -0.01263,0 -0.016932,-0.0082 -0.00956,-0.01821 0.00737,-0.01002 0.00308,-0.01821 -0.00956,-0.01821 -0.01263,0 -0.024448,0.01025 -0.026263,0.02277 -0.0018,0.01252 -0.00557,0.03096 -0.00834,0.04098 -0.00278,0.01002 -0.00616,0.03346 -0.00754,0.0521 -0.00225,0.03072 -0.00622,0.03003 -0.042251,-0.0073 -0.031633,-0.03281 -0.03975,-0.03508 -0.03975,-0.01112 0,0.01656 0.00749,0.03011 0.016632,0.03011 0.026297,0 -6.022e-4,0.09233 -0.035395,0.121566 -0.017323,0.01455 -0.042593,0.02069 -0.056156,0.01365 -0.015129,-0.0079 -0.020578,-0.003 -0.014099,0.0125 0.013179,0.03157 -0.066067,0.12965 -0.093322,0.115502 -0.011014,-0.0057 -0.020025,9.08e-4 -0.020025,0.01472 0,0.04136 -0.099765,0.104502 -0.1278476,0.08091 -0.017444,-0.01465 -0.023926,-0.0096 -0.023926,0.01873 0,0.03979 -0.112707,0.122689 -0.1379583,0.101478 -0.0076,-0.0064 -0.013814,-0.0012 -0.013814,0.01159 0,0.01305 -0.014107,0.01865 -0.032261,0.0128 -0.018646,-0.006 -0.030085,-0.0011 -0.027101,0.01171 0.00285,0.01216 -0.00703,0.02006 -0.021942,0.01756 -0.014907,-0.0025 -0.027101,0.0027 -0.027101,0.01154 0,0.01342 -0.028451,0.02536 -0.1084089,0.04548 -0.00596,0.0015 -0.023464,0.0095 -0.038893,0.01768 -0.016132,0.0086 -0.041467,0.0056 -0.059625,-0.0071 -0.025436,-0.01773 -0.031573,-0.01627 -0.031573,0.0075 0,0.03709 -0.057647,0.03837 -0.1006651,0.0022 -0.017887,-0.01503 -0.040886,-0.02732 -0.051107,-0.02732 -0.010221,0 -0.033219,0.01229 -0.051107,0.02732 -0.035158,0.02953 -0.1112471,0.03822 -0.09075,0.01036 z M 6.2426281,5.3137626 c -0.0055,-0.01772 -0.010357,-0.0076 -0.0108,0.02242 -4.509e-4,0.03005 0.00405,0.04455 0.01,0.03222 0.00594,-0.01233 0.0063,-0.03692 7.918e-4,-0.05464 z m 0.5996376,0.023 c 0.00672,-0.0147 0.00289,-0.03158 -0.00852,-0.0375 -0.011405,-0.0059 -0.020736,0.0061 -0.020736,0.02674 0,0.04398 0.012059,0.04841 0.029256,0.01076 z M 5.7998233,5.0473916 c -0.0062,-0.0086 -0.019665,-0.0045 -0.029916,0.0091 -0.028992,0.03843 -0.022577,0.056 0.010943,0.02998 0.016636,-0.01292 0.025174,-0.03051 0.018973,-0.03909 z m 1.4992634,0.01831 c -0.00749,-0.0164 -0.022261,-0.02534 -0.032817,-0.01986 -0.010556,0.0055 -0.00709,0.021 0.00769,0.03448 0.033264,0.03033 0.04306,0.02463 0.025125,-0.01463 z m 0.2756262,-0.327658 c -0.01328,-0.01344 -0.016914,-0.03115 -0.00808,-0.03934 0.00884,-0.0082 0.00342,-0.0088 -0.012081,-0.0013 -0.02169,0.01052 -0.022325,0.01955 -0.00278,0.03934 0.013964,0.01413 0.030269,0.0257 0.036229,0.0257 0.00596,0 -1.77e-5,-0.011 -0.013306,-0.02444 z M 7.8902252,4.340188 c -0.00692,-0.014528 -0.012058,-0.010211 -0.0131,0.011005 -9.368e-4,0.019198 0.00418,0.029955 0.011386,0.023903 0.0072,-0.00605 0.00797,-0.021758 0.00173,-0.034907 z M 5.0928306,4.0658633 c -0.00602,-0.012522 -0.010935,-0.00229 -0.010935,0.022765 0,0.025043 0.00492,0.035287 0.010935,0.022764 0.00602,-0.012522 0.00602,-0.03301 0,-0.045531 z m 0.00732,-0.03903 c 0,-0.00394 -0.015144,-0.012039 -0.033647,-0.018004 -0.019296,-0.00622 -0.027999,-0.00316 -0.020401,0.00716 0.012732,0.017305 0.054051,0.025598 0.054051,0.010845 z m -0.195136,-0.036425 c 0,-0.00394 -0.01514,-0.012039 -0.033647,-0.018004 -0.019296,-0.00622 -0.027999,-0.00316 -0.020401,0.00716 0.012732,0.017305 0.054051,0.025598 0.054051,0.010845 z m 0.1084089,-0.011055 c 0,-0.010017 -0.00975,-0.018214 -0.021683,-0.018214 -0.011924,0 -0.021683,0.0082 -0.021683,0.018214 0,0.010017 0.00975,0.018214 0.021683,0.018214 0.011924,0 0.021683,-0.0082 0.021683,-0.018214 z m 3.0137602,0 c 0,-0.010017 -0.010334,-0.018214 -0.02296,-0.018214 -0.01263,0 -0.016932,0.0082 -0.00956,0.018214 0.00737,0.010017 0.017703,0.018214 0.02296,0.018214 0.00526,-10e-8 0.00956,-0.0082 0.00956,-0.018214 z M 4.6448381,3.7709854 c 0,-0.00442 -0.00976,-0.013095 -0.021683,-0.019289 -0.011924,-0.00619 -0.021683,-0.00257 -0.021683,0.00803 0,0.01061 0.00976,0.019289 0.021683,0.019289 0.011924,0 0.021683,-0.00362 0.021683,-0.00803 z M 4.6231556,3.4511926 c 0,-0.010017 -0.015212,-0.018214 -0.033801,-0.018214 -0.01859,0 -0.02777,0.0082 -0.020401,0.018214 0.00737,0.010017 0.022581,0.018214 0.033801,0.018214 0.011221,0 0.020401,-0.0082 0.020401,-0.018214 z M 5.241758,2.0861737 c -0.00798,-0.010848 -0.024636,-0.014465 -0.037011,-0.00804 -0.014566,0.00756 -0.012348,0.016947 0.00629,0.026626 0.034794,0.018063 0.050632,0.00848 0.030716,-0.018584 z m 2.6233899,0.0026 c -0.00667,-0.00561 -0.02417,-1.13e-5 -0.038878,0.012437 -0.021254,0.017988 -0.018763,0.020079 0.012138,0.010196 0.021382,-0.00684 0.033418,-0.017023 0.02674,-0.02263 z m -0.085941,-0.098755 c 0.0074,-0.00622 -0.0018,-0.00942 -0.020427,-0.00712 -0.018635,0.00229 -0.039937,0.00926 -0.047337,0.01548 -0.0074,0.00622 0.0018,0.00942 0.020427,0.00712 0.018635,-0.00229 0.039937,-0.00926 0.047337,-0.01548 z M 7.6548515,1.8739689 c -0.030093,-0.025275 -0.035041,-0.025329 -0.046389,-5.015e-4 -0.0087,0.019054 -0.00282,0.024617 0.018718,0.017678 0.017301,-0.00558 0.031419,2.824e-4 0.031419,0.01307 0,0.012757 0.00674,0.017536 0.014971,0.010622 0.00823,-0.00692 -1.815e-4,-0.02531 -0.018718,-0.040873 z M 5.6535538,1.7643723 c -0.019308,-0.016217 -0.041674,-0.023968 -0.049705,-0.017223 -0.00803,0.00675 -2.544e-4,0.019887 0.017293,0.029209 0.051222,0.027213 0.07056,0.02006 0.032411,-0.011986 z m 1.8099086,-0.00889 c 0,-0.026184 -0.037621,-0.018681 -0.05078,0.010127 -0.00806,0.01764 -0.00166,0.023034 0.01936,0.016264 0.017282,-0.00557 0.031419,-0.017446 0.031419,-0.026391 z M 5.941477,1.5961788 c -0.031517,-0.010099 -0.04151,0.0073 -0.024978,0.04349 0.014389,0.031495 0.015888,0.031398 0.030122,-0.00194 0.00824,-0.019301 0.00592,-0.037996 -0.00515,-0.041544 z m 1.2181088,0.011005 c 1.815e-4,-0.00751 -0.016741,-0.013011 -0.037611,-0.012221 -0.020867,7.855e-4 -0.026293,0.00542 -0.012059,0.010284 0.014238,0.00486 0.020634,0.022658 0.014216,0.03954 -0.00997,0.026231 -0.00827,0.026723 0.011728,0.00338 0.012866,-0.015026 0.023543,-0.033465 0.023727,-0.040978 z M 6.2502685,1.5324462 c -0.01021,-0.00858 -0.036022,-0.0073 -0.057651,0.00285 -0.033689,0.015838 -0.031103,0.01801 0.018485,0.015546 0.031825,-0.00157 0.04937,-0.00983 0.039166,-0.018411 z m 0.1291072,0.00701 c 0,-0.0097 -0.014637,-0.012923 -0.032524,-0.00716 -0.017887,0.00576 -0.032524,0.013703 -0.032524,0.01764 0,0.00394 0.014637,0.00716 0.032524,0.00716 0.017887,0 0.032524,-0.00794 0.032524,-0.01764 z m 0.3685894,0.010484 c 0,-0.00394 -0.014637,-0.011876 -0.032524,-0.01764 -0.017887,-0.00577 -0.032524,-0.00254 -0.032524,0.00716 0,0.0097 0.014637,0.01764 0.032524,0.01764 0.017887,0 0.032524,-0.00322 0.032524,-0.00716 z m 0.1300902,-0.011053 c -0.017887,-0.00971 -0.042279,-0.017656 -0.054204,-0.017656 -0.011923,0 -0.00705,0.00795 0.010841,0.017656 0.017887,0.00971 0.042279,0.017656 0.054205,0.017656 0.011923,0 0.00705,-0.00795 -0.010842,-0.017656 z"
       id="path97" />
  </g>
  <path
     fill="#AAA"
     d="M8.26 6.08L6.55 7.4H2.53L0 14h12.96L16 6.08H8.26z"
     id="path867" />
</svg>
